<svg width="25" height="25" viewBox="0 0 2143 2500" fill="none" xmlns="http://www.w3.org/2000/svg">
<path d="M1947.28 6.98755H194.171C52.8663 6.98755 0.0712891 59.7826 0.0712891 201.863V1916.93C0.0712891 1933.23 0.847687 1947.98 2.40048 1961.96C5.50607 1993.01 6.28247 2023.29 35.0092 2057.45C38.1148 2060.56 67.6179 2083.07 67.6179 2083.07C83.1458 2090.84 94.0154 2096.27 111.873 2104.04L974.45 2465.84C1019.48 2486.02 1038.11 2494.56 1070.72 2493.79C1103.33 2494.56 1121.97 2486.8 1167 2465.84L2029.57 2104.04C2047.43 2097.05 2058.3 2090.84 2073.83 2083.07C2073.83 2083.07 2103.33 2061.34 2106.44 2057.45C2135.16 2023.29 2135.94 1993.01 2139.05 1961.96C2140.6 1947.98 2141.38 1933.23 2141.38 1916.93V201.863C2141.38 59.7826 2089.36 6.98755 1947.28 6.98755Z" fill="white"/>
<path d="M1829.26 1731.37L1828.49 1735.25L1827.71 1739.91L1826.93 1743.79L1825.38 1747.67L1824.61 1751.55L1823.05 1755.43L1821.5 1759.32L1819.95 1762.42L1818.39 1766.3L1816.07 1769.41L1813.74 1772.52L1811.41 1775.62L1809.08 1778.73L1806.75 1781.83L1803.64 1784.94L1801.31 1787.27L1798.21 1790.37L1795.1 1792.7L1792 1795.03L1788.89 1796.58L1785.79 1798.91L1781.9 1801.24L1778.02 1802.79L1774.14 1805.12L1770.26 1806.68L1766.38 1808.23L1762.49 1809.78V1809.01L1758.61 1810.56L1754.73 1811.34L1747.74 1812.89L1743.86 1813.66L1739.98 1814.44L1736.1 1815.22L1732.21 1815.99L1727.56 1816.77L1723.67 1817.55H1708.15L1704.26 1816.77H1699.61L1695.72 1815.99L1691.84 1815.22L1687.18 1814.44L1683.3 1813.66L1679.42 1812.89L1675.54 1812.11L1671.66 1811.34L1667.77 1810.56L1663.89 1809.78L1660.01 1808.23L1656.13 1807.45L1652.25 1805.9L1648.36 1804.35L1644.48 1802.79L1640.6 1801.24L1636.72 1799.69L1632.84 1798.14L1628.95 1796.58L1625.07 1795.03L1621.19 1793.48L1617.31 1791.93L1613.43 1789.6L1610.32 1787.27L1606.44 1784.94L1603.33 1782.61L1600.23 1780.28L1597.12 1777.95L1594.02 1775.62L1590.91 1773.29L1587.8 1770.96L1584.7 1768.63L1581.59 1765.53L1583.92 1762.42L1587.03 1759.32L1589.36 1756.21L1592.46 1753.11L1594.79 1750L1597.12 1746.89L1600.23 1743.79L1602.56 1740.68L1605.66 1737.58L1607.99 1734.47L1611.1 1731.37L1613.43 1728.26L1615.75 1725.16L1618.86 1722.05L1621.19 1718.94L1624.3 1715.84L1626.62 1712.73L1629.73 1715.06L1633.61 1717.39L1636.72 1719.72L1640.6 1722.05L1643.7 1724.38L1647.59 1726.71L1650.69 1729.04L1654.57 1730.59L1657.68 1732.92L1661.56 1734.47L1665.44 1736.02L1669.33 1737.58L1673.21 1739.13L1677.09 1740.68L1680.97 1742.24L1684.85 1743.79L1688.74 1745.34L1692.62 1746.12L1700.38 1747.67L1705.04 1748.45L1708.92 1749.22H1712.8L1717.46 1750H1726L1730.66 1749.22L1734.54 1748.45L1738.43 1747.67L1742.31 1746.89L1745.41 1745.34L1748.52 1743.79L1751.62 1741.46L1753.95 1738.35L1755.51 1735.25L1757.06 1731.37L1757.84 1727.48V1726.71L1757.06 1722.05L1755.51 1718.17L1753.18 1715.06L1750.07 1712.73L1746.97 1710.4L1743.86 1708.85L1739.98 1707.3L1736.1 1705.75L1731.44 1703.42L1728.33 1702.64L1725.23 1701.86L1721.34 1700.31L1717.46 1699.53L1713.58 1697.98L1709.7 1697.21L1705.04 1695.65L1701.16 1694.88L1696.5 1693.32L1692.62 1692.55L1688.74 1690.99L1684.85 1690.22L1680.97 1688.66L1677.09 1687.11L1673.21 1686.34L1669.33 1684.78L1665.44 1683.23L1661.56 1681.68L1656.9 1680.12L1653.02 1678.57L1649.14 1677.02L1645.26 1675.47L1641.38 1673.14L1637.49 1670.81L1634.39 1668.48L1630.51 1666.15L1627.4 1663.82L1624.3 1661.49L1621.19 1659.16L1618.08 1656.06L1614.98 1652.95L1612.65 1649.84L1610.32 1646.74L1607.99 1643.63L1605.66 1640.53L1603.33 1636.65L1601.78 1633.54L1600.23 1630.43L1599.45 1626.55L1597.9 1623.45L1597.12 1619.57L1596.34 1615.68L1595.57 1611.8L1594.79 1607.92L1594.02 1603.26V1593.94L1594.79 1590.06L1595.57 1586.18L1596.34 1582.3L1597.12 1578.42L1597.9 1574.53L1599.45 1570.65L1600.23 1566.77L1601.78 1562.89L1603.33 1559.01L1604.89 1555.12L1607.21 1551.24L1609.54 1547.36L1611.87 1544.25L1614.2 1541.15L1617.31 1538.04L1620.41 1534.94L1623.52 1531.83L1626.62 1528.73L1629.73 1526.4L1632.84 1524.07L1635.94 1521.74L1639.05 1519.41L1642.93 1517.08L1646.81 1515.53L1650.69 1513.2L1654.57 1511.65L1658.46 1510.09L1662.34 1508.54L1666.22 1506.99L1669.33 1506.21L1673.21 1505.43L1677.09 1504.66L1680.97 1503.88L1684.85 1503.11L1688.74 1502.33L1692.62 1501.55L1696.5 1500.78L1700.38 1500H1717.46L1722.12 1500.78L1726.78 1501.55H1730.66L1735.32 1502.33L1739.2 1503.11L1743.86 1503.88L1747.74 1504.66L1751.62 1505.43L1755.51 1506.21L1759.39 1506.99L1763.27 1507.76L1767.15 1509.32L1771.03 1510.87L1774.92 1511.65L1778.8 1513.2L1782.68 1514.75L1786.56 1516.3L1790.44 1517.86L1794.33 1519.41L1798.21 1521.74L1801.31 1523.29L1805.2 1525.62L1809.08 1527.95L1812.18 1530.28L1816.07 1532.61L1819.17 1534.94L1822.28 1537.27L1825.38 1539.6L1828.49 1541.93L1826.16 1545.03L1823.83 1548.14L1821.5 1551.24L1819.17 1554.35L1816.84 1558.23L1814.51 1561.34L1812.18 1564.44L1809.85 1567.55L1807.52 1570.65L1805.2 1573.76L1802.87 1576.86L1800.54 1579.97L1798.21 1583.85L1795.88 1586.96L1793.55 1590.06L1785.79 1607.14L1783.46 1610.25L1780.35 1607.92L1776.47 1605.59L1773.36 1603.26L1770.26 1600.93L1766.38 1599.38L1763.27 1597.05L1759.39 1595.5L1756.28 1593.94L1752.4 1592.39L1749.3 1590.84L1745.41 1589.29L1742.31 1587.73L1737.65 1586.18L1733.77 1584.63L1729.89 1583.07L1726 1582.3L1723.67 1583.85L1719.79 1583.07L1715.91 1582.3L1712.03 1581.52L1708.15 1580.75H1699.61L1694.95 1581.52L1691.07 1582.3L1687.18 1583.07L1684.08 1584.63L1680.97 1586.18L1677.09 1589.29L1674.76 1593.17L1673.21 1597.05L1672.43 1600.93V1601.71L1673.21 1607.14L1674.76 1611.8L1676.31 1614.13L1679.42 1617.24L1683.3 1619.57L1686.41 1621.89L1690.29 1623.45L1694.95 1625L1699.61 1626.55L1702.71 1627.33L1705.82 1628.88L1709.7 1629.66L1713.58 1631.21L1717.46 1631.99L1722.12 1633.54L1726.78 1635.09L1731.44 1636.65L1736.1 1637.42L1739.98 1638.98L1744.64 1640.53L1748.52 1641.3L1752.4 1642.86L1756.28 1644.41L1760.16 1645.96L1764.05 1647.52L1767.93 1649.07L1771.81 1649.84L1776.47 1651.4L1780.35 1653.73L1784.23 1655.28L1788.11 1657.61L1792 1659.94L1795.88 1662.27L1798.98 1664.6L1802.09 1666.93L1805.2 1669.25L1808.3 1672.36L1811.41 1675.47L1814.51 1678.57L1817.62 1681.68L1819.95 1684.78L1822.28 1688.66L1824.61 1691.77L1826.93 1695.65L1828.49 1698.76L1830.04 1702.64L1830.82 1706.52L1831.59 1710.4L1833.15 1718.17L1833.92 1722.05L1834.7 1726.71V1736.02L1829.26 1731.37ZM1553.64 1810.56H1327.71V1522.52H1555.2V1587.73H1403.02V1635.09H1539.67V1696.43H1403.02V1745.34H1557.53V1810.56H1553.64ZM1265.6 1810.56H1193.39V1640.53L1191.07 1643.63L1188.74 1647.52L1186.41 1650.62L1184.08 1653.73L1181.75 1657.61L1179.42 1660.71L1177.09 1663.82L1174.76 1667.7L1172.43 1670.81L1170.1 1673.91L1167.77 1677.02L1165.44 1680.9L1163.12 1684.01L1160.79 1687.11L1158.46 1690.99L1156.13 1694.1L1153.8 1697.21L1151.47 1701.09L1149.92 1704.19L1147.59 1707.3L1145.26 1711.18L1142.93 1714.29L1140.6 1717.39L1138.27 1721.27L1135.94 1724.38L1134.39 1727.48L1132.06 1730.59L1129.73 1734.47L1127.4 1737.58L1125.07 1740.68L1123.52 1744.57L1121.19 1747.67L1118.86 1750.78L1116.53 1754.66L1114.2 1757.76H1112.65L1110.32 1753.88L1107.99 1750.78L1105.66 1746.89L1103.33 1743.79L1101 1739.91L1098.67 1736.8L1096.34 1732.92L1094.02 1729.81L1091.69 1725.93L1090.13 1722.83L1087.8 1718.94L1085.48 1715.84L1083.15 1711.96L1087.03 1708.07L1084.7 1704.19L1082.37 1701.09L1080.04 1697.21L1077.71 1694.1L1075.38 1690.22L1073.05 1687.11L1071.5 1684.78L1069.17 1681.68L1066.84 1677.8L1064.51 1674.69L1062.18 1670.81L1059.85 1667.7L1057.52 1663.82L1055.97 1661.49L1053.64 1657.61L1051.31 1654.5L1048.98 1650.62L1046.66 1647.52L1044.33 1643.63L1042 1640.53V1809.78H967.463V1521.74H1048.21L1050.54 1524.84L1052.87 1528.73L1055.2 1531.83L1057.52 1535.71L1059.85 1538.82L1062.18 1542.7L1064.51 1545.81L1066.84 1549.69L1069.17 1552.8L1071.5 1555.9L1073.83 1559.78L1076.16 1562.89L1078.49 1566.77L1080.82 1569.88L1083.15 1573.76L1085.48 1576.86L1087.8 1579.97L1090.13 1583.85L1092.46 1586.96L1094.79 1590.84L1097.12 1593.94L1099.45 1597.83L1101.78 1600.93L1103.33 1604.81L1105.66 1607.92L1107.21 1611.02L1109.54 1614.91L1111.87 1618.01L1114.2 1621.89L1116.53 1625L1118.08 1628.88L1120.41 1631.99L1122.74 1635.87L1125.07 1638.98L1127.4 1635.87L1129.73 1631.99L1132.06 1628.88L1134.39 1625L1136.72 1621.89L1139.05 1618.01L1141.38 1614.91L1143.71 1611.02L1146.03 1607.92L1147.59 1604.81L1149.92 1600.93L1152.25 1597.83L1154.57 1593.94L1156.9 1590.84L1159.23 1586.96L1161.56 1583.85L1163.89 1579.97L1166.22 1576.86L1168.55 1573.76L1170.88 1569.88L1173.21 1566.77L1175.54 1562.89L1177.87 1559.78L1180.2 1555.9L1181.75 1552.8L1184.08 1549.69L1186.41 1545.81L1188.74 1542.7L1191.07 1538.82L1193.39 1535.71L1195.72 1531.83L1198.05 1528.73L1200.38 1524.84L1202.71 1521.74H1283.46V1809.78L1265.6 1810.56ZM809.078 1691.77L807.525 1687.89L805.972 1684.01L804.419 1680.12L802.867 1676.24L801.314 1672.36L799.761 1668.48L798.208 1664.6L796.655 1660.71L795.103 1656.83L793.55 1652.95L791.997 1649.07L790.444 1645.19L788.891 1641.3L787.339 1637.42L785.786 1633.54L784.233 1629.66L782.68 1625.78L781.127 1621.89L779.575 1618.01L778.022 1614.13L776.469 1610.25L774.916 1606.37L773.363 1610.25L771.811 1614.13L770.258 1618.01L768.705 1621.89L767.152 1625.78L765.599 1629.66L764.047 1633.54L762.494 1637.42L760.941 1641.3L759.388 1645.19L757.835 1649.07L756.283 1652.95L754.73 1656.83L753.177 1660.71L751.624 1664.6L750.072 1668.48L748.519 1672.36L746.966 1676.24L745.413 1680.12L743.86 1684.01L742.308 1687.89L740.755 1691.77L739.202 1695.65H805.972L809.078 1691.77ZM932.525 1810.56H855.662L854.109 1806.68L852.556 1802.79L851.003 1798.91L849.45 1795.03L847.898 1791.15L846.345 1787.27L844.792 1783.39L843.239 1779.5L841.686 1775.62L840.134 1771.74L838.581 1767.86L837.028 1763.98L835.475 1760.09L833.922 1756.21L832.37 1752.33H720.568L719.016 1756.21L717.463 1760.09L715.91 1763.98L714.357 1767.86L712.804 1771.74L709.699 1778.73L708.146 1782.61L706.593 1786.49L705.041 1790.37L703.488 1794.25L701.935 1798.14L700.382 1802.02L698.829 1805.9L697.277 1809.78H619.637L621.19 1805.9L624.295 1798.91L625.848 1795.03L627.401 1791.15L630.506 1784.16L632.059 1780.28L633.612 1776.4L635.165 1772.52L636.717 1770.19L638.27 1766.3L639.823 1762.42L641.376 1758.54L642.929 1754.66L644.481 1750.78L646.034 1746.89L647.587 1743.01L649.14 1739.13L650.693 1735.25L652.245 1731.37L653.798 1727.48L656.904 1720.5L658.457 1716.62L660.009 1712.73L661.562 1708.85L663.115 1704.97L664.668 1701.09L666.221 1697.21L667.773 1693.32L669.326 1689.44L670.879 1685.56L672.432 1681.68L673.985 1677.8L675.537 1673.91L677.09 1670.03L678.643 1666.15L680.196 1662.27L681.749 1658.39L683.301 1654.5L684.854 1650.62L686.407 1646.74L687.96 1642.86L689.513 1638.98L691.065 1635.09L692.618 1631.21L694.171 1627.33L695.724 1623.45L697.277 1619.57L698.829 1615.68L700.382 1611.8L701.935 1607.92L703.488 1604.04L705.041 1600.16L706.593 1596.27L709.699 1589.29L711.252 1585.4L712.804 1581.52L714.357 1577.64L715.91 1573.76L717.463 1569.88L719.016 1565.99L720.568 1562.11L722.121 1558.23L723.674 1554.35L725.227 1550.47L726.003 1546.58L727.556 1542.7L729.109 1538.82L730.662 1534.94L732.214 1531.06L733.767 1527.17L735.32 1523.29L736.873 1519.41L738.426 1515.53L741.531 1508.54L743.084 1504.66H816.065L817.618 1508.54L819.171 1512.42L820.724 1516.3L822.277 1520.19L823.829 1524.07L825.382 1527.95L826.935 1531.83L828.488 1535.71L830.04 1539.6L831.593 1543.48L833.146 1547.36L834.699 1551.24L836.252 1555.12L837.804 1559.01L839.357 1562.89L840.91 1566.77L842.463 1570.65L844.016 1574.53L845.568 1578.42L847.121 1582.3L848.674 1586.18L850.227 1590.06L851.78 1593.94L853.332 1597.83L854.885 1601.71L856.438 1605.59L857.991 1609.47L859.544 1613.35L861.096 1617.24L862.649 1621.12L865.755 1628.11L867.308 1631.99L868.86 1635.87L870.413 1639.75L871.966 1643.63L873.519 1647.52L875.072 1651.4L876.624 1655.28L878.177 1659.16L879.73 1663.04L881.283 1666.93L882.835 1670.81L884.388 1674.69L885.941 1678.57L887.494 1682.45L889.047 1686.34L890.599 1690.22L892.152 1694.1L893.705 1697.98L895.258 1701.86L896.811 1705.75L898.363 1709.63L899.916 1713.51L901.469 1717.39L903.022 1721.27L904.575 1725.16L906.127 1729.04L907.68 1732.92L909.233 1736.8L910.786 1740.68L912.339 1744.57L913.891 1748.45L915.444 1752.33L916.997 1756.21L918.55 1760.09L920.103 1763.98L921.655 1767.86L923.208 1771.74L924.761 1775.62L926.314 1779.5L927.867 1783.39L929.419 1787.27L930.972 1791.15L932.525 1795.03L934.078 1798.91L935.631 1802.79L937.183 1806.68L940.289 1813.66L932.525 1810.56ZM587.804 1773.29L584.699 1775.62L581.593 1777.95L578.488 1780.28L575.382 1782.61L572.276 1784.94L569.171 1787.27L566.065 1789.6L562.183 1791.93L558.301 1794.25L554.419 1796.58L550.537 1798.14L546.655 1800.47L542.773 1802.02L538.891 1803.57L535.009 1805.12L531.127 1806.68L527.245 1808.23L523.363 1809.78L519.481 1811.34L515.599 1812.89L511.718 1814.44L507.836 1815.22L503.954 1815.99L500.072 1816.77L496.19 1817.55L492.308 1818.32L487.649 1819.1L483.767 1819.88L479.109 1820.65L475.227 1821.43L470.568 1822.2H458.146L454.264 1821.43L449.606 1820.65L445.724 1819.88L441.842 1819.1L437.96 1818.32L434.078 1817.55L430.196 1816.77L426.314 1815.99L422.432 1815.22L418.55 1814.44L414.668 1813.66L410.786 1812.11L406.904 1810.56L403.022 1809.01L399.14 1807.45L395.258 1805.9L391.376 1804.35L387.494 1802.79L383.612 1800.47L380.506 1798.91L376.624 1796.58L373.519 1794.25L370.413 1791.93L367.308 1789.6L364.202 1787.27L361.096 1784.94L357.991 1782.61L354.885 1780.28L351.78 1777.17L348.674 1774.84L345.568 1771.74L342.463 1768.63L340.134 1765.53L337.804 1762.42L335.475 1759.32L333.146 1756.21L330.817 1753.11L328.488 1750L326.935 1746.89L324.606 1743.01L322.277 1739.91L320.724 1736.02L319.171 1732.14L317.618 1728.26L316.065 1724.38L314.513 1721.27L312.96 1717.39L312.183 1713.51L310.631 1709.63L309.854 1705.75L308.301 1701.86L307.525 1697.98V1694.1L306.749 1690.22V1686.34L305.972 1682.45V1649.07L306.749 1644.41L307.525 1640.53L308.301 1636.65L309.078 1632.76L310.631 1628.88L311.407 1625L312.96 1621.12L314.513 1617.24L316.065 1613.35L317.618 1609.47L319.171 1605.59L320.724 1601.71L322.277 1597.83L323.829 1593.94L326.158 1590.06L328.488 1586.96L330.04 1583.85L332.37 1580.75L334.699 1577.64L337.028 1574.53L339.357 1571.43L341.686 1568.32L344.016 1565.22L347.121 1562.11L349.45 1559.01L352.556 1555.9L355.662 1552.8L358.767 1550.47L361.873 1547.36L364.978 1545.03L368.084 1542.7L371.19 1540.37L374.295 1538.04L377.401 1535.71L380.506 1533.39L384.388 1531.06L388.27 1528.73L392.152 1526.4L396.034 1524.84L399.916 1523.29L403.798 1520.96L406.904 1519.41L410.786 1517.86L414.668 1516.3L418.55 1515.53L422.432 1513.98L426.314 1513.2L430.196 1511.65L434.078 1510.87L437.96 1510.09L441.842 1509.32L445.724 1508.54L449.606 1507.76L453.488 1506.99L457.37 1506.21H473.674L478.332 1506.99L482.991 1507.76H486.873L490.755 1508.54L495.413 1509.32L499.295 1510.09L503.177 1510.87L507.059 1511.65L510.941 1512.42L514.823 1513.2L518.705 1513.98L522.587 1515.53L526.469 1516.3L529.575 1517.86L533.457 1519.41L540.444 1522.52L544.326 1524.07L548.208 1526.4L552.09 1527.95L555.196 1530.28L559.078 1532.61L562.183 1534.94L566.065 1537.27L569.171 1539.6L572.276 1541.93L575.382 1544.25L578.488 1546.58L581.593 1549.69L584.699 1552.02L582.37 1555.12L579.264 1558.23L576.935 1561.34L573.829 1564.44L571.5 1567.55L569.171 1570.65L566.065 1573.76L563.736 1576.86L561.407 1579.97L558.301 1583.07L555.972 1586.18L552.867 1589.29L550.537 1592.39L548.208 1595.5L545.103 1598.6L542.773 1601.71L539.668 1604.81L537.339 1607.92L534.233 1605.59L531.127 1602.48L528.022 1600.16L524.916 1597.83L521.811 1595.5L518.705 1593.17L515.599 1590.84L511.718 1588.51L508.612 1586.96L505.506 1585.4L502.401 1583.85L498.519 1582.3L494.637 1580.75L490.755 1579.97L486.873 1579.19L482.991 1578.42L479.109 1577.64L474.45 1576.86L469.792 1576.09H461.252L457.37 1576.86L453.488 1577.64L449.606 1578.42L445.724 1579.19L441.842 1580.75L437.96 1582.3L434.854 1591.61L430.972 1593.17L427.867 1595.5L424.761 1597.83L421.655 1600.16L418.55 1602.48L415.444 1604.81L412.339 1607.14L410.009 1610.25L406.904 1613.35L404.575 1616.46L402.245 1619.57L399.916 1622.67L398.363 1626.55L396.034 1629.66L394.481 1633.54L392.929 1637.42L391.376 1641.3L389.823 1645.19L389.047 1649.07L388.27 1652.95L387.494 1657.61V1686.34L388.27 1690.22L389.047 1694.1L389.823 1697.98L391.376 1701.86L396.034 1700.31L397.587 1704.19L399.14 1708.07L401.469 1711.96L405.351 1718.17L407.68 1721.27L410.009 1724.38L413.115 1727.48L415.444 1730.59L418.55 1732.92L421.655 1735.25L424.761 1737.58L427.867 1739.91L430.972 1742.24L434.854 1743.79L438.736 1745.34L442.618 1746.89L446.5 1748.45L450.382 1750L454.264 1750.78L458.146 1751.55L462.028 1752.33L466.686 1753.11H473.674L478.332 1752.33L482.991 1751.55L486.873 1750.78L490.755 1750L494.637 1749.22L498.519 1748.45L502.401 1747.67L506.283 1746.12L509.388 1744.57L513.27 1743.01L516.376 1741.46L519.481 1739.13V1700.31H462.028V1642.86H590.134V1771.74L587.804 1773.29ZM461.252 871.118H632.059V739.13H461.252V469.721H639.047V337.733H316.065V1290.37H641.376V1158.39H461.252V871.118ZM1683.3 899.845V1114.91C1683.3 1152.95 1665.44 1170.81 1628.95 1170.81H1601.78C1563.74 1170.81 1545.88 1152.95 1545.88 1114.91V513.199C1545.88 475.155 1563.74 457.298 1601.78 457.298H1625.85C1662.34 457.298 1680.2 475.155 1680.2 513.199V699.534H1822.28V504.658C1822.28 386.646 1765.6 329.193 1647.59 329.193H1576.93C1458.92 329.193 1400.69 387.422 1400.69 506.211V1121.12C1400.69 1239.91 1458.92 1298.14 1576.93 1298.14H1648.36C1766.38 1298.14 1824.61 1239.91 1824.61 1121.12V899.068H1683.3M1180.2 337.733H1325.38V1290.37H1180.2V337.733ZM969.792 760.87C969.792 798.913 951.935 816.77 915.444 816.77H855.662V465.839H915.444C951.935 465.839 969.792 483.696 969.792 521.739V760.87ZM938.736 337.733H711.252V1290.37H856.438V944.876H938.736C1056.75 944.876 1114.98 886.646 1114.98 767.857V514.752C1114.98 395.963 1056.75 337.733 938.736 337.733ZM657.68 2151.4H1487.65L1064.51 2291.15L657.68 2151.4Z" fill="black"/>
</svg>
