<svg width="40" height="48" viewBox="0 0 40 48" fill="none" xmlns="http://www.w3.org/2000/svg">
<mask id="mask0_1732_2183" style="mask-type:luminance" maskUnits="userSpaceOnUse" x="0" y="0" width="40" height="48">
<path d="M39.974 0H0.0253906V47.1738H39.974V0Z" fill="white"/>
</mask>
<g mask="url(#mask0_1732_2183)">
<path fill-rule="evenodd" clip-rule="evenodd" d="M36.3461 -0.00012207H3.65321C1.00333 -0.00012207 0.0253906 0.995064 0.0253906 3.69291V36.2467C0.0253906 36.552 0.0374889 36.8356 0.0639909 37.0983C0.12432 37.6872 0.135678 38.2578 0.673866 38.9075C0.726459 38.9711 1.27593 39.3872 1.27593 39.3872C1.57148 39.5347 1.77329 39.6433 2.10663 39.7799L18.2051 46.6435C19.0408 47.0333 19.3903 47.1853 19.9972 47.173V47.1732C19.998 47.1732 19.9988 47.1732 19.9997 47.1732C20.0005 47.1732 20.0012 47.1732 20.002 47.1732V47.173C20.609 47.1853 20.9585 47.0333 21.7943 46.6435L37.8926 39.7799C38.2261 39.6433 38.4278 39.5347 38.7234 39.3872C38.7234 39.3872 39.2729 38.9711 39.3254 38.9075C39.8636 38.2578 39.875 37.6872 39.9353 37.0983C39.9618 36.8356 39.974 36.552 39.974 36.2467V3.69291C39.974 0.995064 38.9959 -0.00012207 36.3461 -0.00012207Z" fill="white"/>
<path d="M34.1567 32.7286L34.1493 32.8037L34.1419 32.8862L34.1271 32.9614L34.1051 33.0364L34.0908 33.104L34.0685 33.1791L34.0391 33.2467L34.0095 33.3069L33.9804 33.3743L33.9436 33.4344L33.9067 33.4946L33.8628 33.5546L33.8259 33.6147L33.7821 33.6672L33.7304 33.7197L33.6866 33.7648L33.6276 33.8174L33.5764 33.8625L33.5174 33.9075L33.4587 33.9446L33.4001 33.9896L33.3337 34.0271L33.2677 34.0572L33.2018 34.0947L33.128 34.1248L33.0546 34.1549L32.9813 34.1773L32.908 34.1999L32.8416 34.2223L32.7682 34.2374L32.7022 34.2524L32.6362 34.2674L32.5624 34.2825L32.489 34.2899L32.4231 34.2975L32.3493 34.305L32.2686 34.3125L32.1952 34.32H32.1219H32.0411H31.9599H31.8866L31.8132 34.3125H31.7325L31.6591 34.305L31.5854 34.2975L31.5046 34.2899L31.4313 34.275L31.358 34.2674L31.2841 34.2524L31.2108 34.2374L31.1374 34.2223L31.0641 34.2074L30.9903 34.1849L30.9243 34.1698L30.851 34.1473L30.7776 34.1248L30.7112 34.0947L30.6379 34.0722L30.5719 34.0497L30.4985 34.0197L30.4322 33.9896L30.3661 33.9595L30.3001 33.9225L30.2338 33.8924L30.1678 33.8549L30.1092 33.8174L30.0428 33.7798L29.9841 33.7423L29.9251 33.7047L29.8666 33.6597L29.808 33.6147L29.749 33.5696L29.6903 33.5245L29.6387 33.4795L29.5801 33.427L29.6243 33.3669L29.6755 33.3143L29.7198 33.2542L29.7711 33.1941L29.8154 33.1416L29.8591 33.0815L29.9108 33.0214L29.9546 32.9689L30.0063 32.9088L30.0502 32.8562L30.1018 32.7962L30.1456 32.736L30.1899 32.6835L30.2411 32.6235L30.2854 32.5634L30.3366 32.5108L30.3809 32.4508L30.4395 32.4958L30.5055 32.5409L30.5645 32.586L30.6305 32.631L30.6895 32.6685L30.7555 32.7135L30.814 32.7511L30.8806 32.7811L30.9391 32.8187L31.0051 32.8488L31.0715 32.8788L31.1374 32.9088L31.2035 32.9313L31.2698 32.9614L31.3432 32.9839L31.4166 33.0064L31.4825 33.029L31.5564 33.044L31.6297 33.059L31.703 33.074L31.7838 33.0815L31.8575 33.0965H31.9309L32.0116 33.104H32.085H32.173L32.2538 33.0965L32.3276 33.0815L32.3935 33.0665L32.4596 33.0514L32.5186 33.029L32.5698 32.9989L32.6288 32.9539L32.6727 32.9013L32.7022 32.8411L32.7244 32.7737L32.7317 32.6985V32.6835L32.7244 32.5934L32.6949 32.5183L32.6579 32.4657L32.6067 32.4207L32.5476 32.3757L32.489 32.3456L32.4231 32.3156L32.3493 32.2855L32.2612 32.2481L32.2099 32.233L32.1514 32.218L32.085 32.1954L32.019 32.1804L31.9456 32.1579L31.8718 32.1429L31.7912 32.1204L31.7177 32.1054L31.637 32.0828L31.5637 32.0679L31.4898 32.0453L31.4166 32.0302L31.3432 32.0077L31.2767 31.9853L31.2035 31.9702L31.1374 31.9476L31.0715 31.9251L31.0051 31.9026L30.9243 31.8725L30.851 31.8425L30.7776 31.8124L30.7038 31.7824L30.6379 31.7449L30.5645 31.7074L30.5055 31.6699L30.4395 31.6323L30.3809 31.5872L30.3219 31.5497L30.2707 31.5046L30.2191 31.4521L30.1678 31.3995L30.1235 31.3468L30.0797 31.2943L30.0428 31.2418L30.0063 31.1817L29.9695 31.1142L29.9399 31.0621L29.9177 31.002L29.8961 30.9344L29.874 30.8743L29.8591 30.7992L29.8444 30.7316L29.837 30.6566L29.8297 30.5814L29.8223 30.499V30.4163V30.4013V30.3261L29.8297 30.2511L29.837 30.1835L29.8444 30.1084L29.8591 30.0409L29.874 29.9733L29.8961 29.9056L29.9108 29.8381L29.9399 29.7705L29.9695 29.7029L29.9989 29.6354L30.0354 29.5678L30.0722 29.5002L30.1161 29.4401L30.1604 29.3801L30.2117 29.32L30.2633 29.2675L30.3145 29.2073L30.3735 29.1547L30.4248 29.1172L30.4838 29.0721L30.5424 29.0271L30.6009 28.9896L30.6674 28.952L30.7334 28.922L30.7993 28.8844L30.8658 28.8545L30.9391 28.8319L31.0124 28.8019L31.0788 28.7793L31.1374 28.7643L31.2035 28.7493L31.2698 28.7343L31.3432 28.7193L31.4092 28.7042L31.4825 28.6967L31.5564 28.6892L31.6297 28.6817L31.703 28.6743H31.7764H31.8575H31.9383H32.019L32.0997 28.6817L32.1804 28.6892H32.2538L32.3349 28.6967L32.4083 28.7118L32.489 28.7193L32.5624 28.7343L32.6288 28.7493L32.7022 28.7643L32.7755 28.7793L32.8416 28.7944L32.9153 28.8168L32.9813 28.8394L33.0473 28.8545L33.1211 28.8844L33.187 28.907L33.253 28.937L33.319 28.967L33.3927 28.9971L33.4587 29.0346L33.5174 29.0647L33.5838 29.1022L33.6498 29.1397L33.7083 29.1774L33.7747 29.2224L33.8334 29.2598L33.8924 29.305L33.951 29.35L34.0095 29.395L33.9657 29.4552L33.9288 29.5152L33.885 29.5753L33.8407 29.6354L33.7969 29.7029L33.7599 29.763L33.7157 29.8231L33.6718 29.8832L33.635 29.9432L33.5911 30.0033L33.5469 30.0634L33.5099 30.1234L33.4661 30.191L33.4218 30.2511L33.378 30.3111L33.3411 30.3712L33.2972 30.4312L33.2382 30.3863L33.1723 30.3487L33.1137 30.3111L33.0546 30.2661L32.9887 30.2361L32.9296 30.1985L32.8637 30.1684L32.8051 30.1384L32.7387 30.1084L32.6801 30.0784L32.6141 30.0558L32.5551 30.0258L32.4743 30.0033L32.4009 29.9807L32.3276 29.9583L32.2538 29.9432L32.1804 29.9282L32.1071 29.9131L32.0338 29.9056L31.9599 29.8982L31.894 29.8906H31.8206H31.7325L31.6518 29.9056L31.578 29.9207L31.512 29.9357L31.4535 29.9658L31.4018 29.9957L31.3358 30.0558L31.2915 30.1234L31.2625 30.191L31.255 30.2661V30.2812L31.2625 30.3787L31.2989 30.4613L31.3285 30.5064L31.3796 30.559L31.4461 30.5965L31.5046 30.634L31.578 30.6641L31.6591 30.6942L31.7473 30.7241L31.8059 30.7392L31.8645 30.7617L31.9309 30.7767L31.9969 30.7992L32.0702 30.8143L32.1514 30.8368L32.2322 30.8593L32.3129 30.8819L32.3935 30.8968L32.4669 30.9194L32.5476 30.9419L32.6214 30.9569L32.6949 30.9794L32.7682 31.002L32.8341 31.0245L32.908 31.047L32.974 31.0696L33.0399 31.0921L33.1211 31.1217L33.1944 31.1593L33.2677 31.1892L33.3411 31.2267L33.4075 31.2644L33.4735 31.3019L33.532 31.3394L33.5911 31.3845L33.6498 31.422L33.7083 31.4746L33.7674 31.5271L33.8186 31.5872L33.8702 31.6398L33.914 31.6999L33.9583 31.7674L33.9948 31.8275L34.0317 31.8951L34.0612 31.9552L34.0833 32.0227L34.1051 32.0903L34.1198 32.1579L34.1345 32.233L34.1493 32.3081L34.1567 32.3832L34.1641 32.4657V32.5483V32.5634V32.646L34.1567 32.7286ZM29.0049 34.23H28.9312H28.8578H28.7845H28.7112H28.6374H28.5639H28.4907H28.4172H28.3361H28.2628H28.1895H28.1161H28.0422H27.969H27.8955H27.8222H27.7483H27.675H27.6017H27.5283H27.4549H27.3812H27.3079H27.2345H27.1611H27.0873H27.014H26.9406H26.8599H26.7861H26.7127H26.6394H26.5661H26.4923H26.4189H26.3456H26.2722H26.1984H26.1251H26.0517H25.9783H25.9045H25.8312H25.7578H25.6845H25.6108H25.5374H25.4566H25.3833H25.3099H25.2361H25.1628H25.0893H25.0161H24.9424H24.869H24.7956V34.1549V34.0797V34.0047V33.93V33.8549V33.7798V33.7047V33.6297V33.5546V33.4795V33.4044V33.3293V33.2542V33.1791V33.104V33.029V32.9539V32.8788V32.8112V32.736V32.661V32.586V32.5108V32.4357V32.3606V32.2855V32.2104V32.1353V32.0603V31.9853V31.9101V31.835V31.7599V31.6848V31.6097V31.5347V31.4595V31.3845V31.3094V31.2343V31.1593V31.0845V31.0095V30.9344V30.8593V30.7842V30.7091V30.634V30.559V30.4839V30.4087V30.3337V30.2586V30.1835V30.1159V30.0409V29.9658V29.8906V29.8156V29.7404V29.6654V29.5902V29.5152V29.4401V29.365V29.2899V29.2148V29.1397V29.0647V28.9896V28.9145V28.8394V28.7643H24.869H24.9424H25.0161H25.0893H25.1628H25.2361H25.3099H25.3833H25.4566H25.53H25.6038H25.6772H25.7504H25.8238H25.8902H25.9636H26.0369H26.1103H26.1841H26.2574H26.3308H26.4041H26.4779H26.5512H26.6246H26.698H26.7718H26.8451H26.9185H26.9918H27.0656H27.1391H27.2123H27.2856H27.3591H27.4329H27.5062H27.5796H27.6529H27.7267H27.8001H27.8734H27.9467H28.0132H28.0866H28.1599H28.2333H28.307H28.3804H28.4537H28.527H28.6009H28.6742H28.7475H28.8209H28.8947H28.9681H29.0414V28.8394V28.907V28.9821V29.0572V29.1322V29.1998V29.2749V29.35V29.4176V29.4927V29.5678V29.6354V29.7105V29.7855V29.8606V29.9282V30.0033H28.9681H28.8947H28.8209H28.7475H28.6742H28.6009H28.5345H28.4611H28.3878H28.3144H28.2406H28.1673H28.0939H28.0206H27.9467H27.8734H27.8001H27.7267H27.6529H27.587H27.5135H27.4402H27.3664H27.2932H27.2197H27.1464H27.0725H26.9992H26.9259H26.8525H26.7787H26.7053H26.6394H26.5661H26.4923H26.4189H26.3456H26.2722H26.1984V30.0784V30.1535V30.2285V30.3036V30.3787V30.4463V30.5214V30.5965V30.6716V30.7467V30.8217V30.8968H26.2722H26.3456H26.4189H26.4923H26.5661H26.6394H26.7127H26.7861H26.8525H26.9259H26.9992H27.0725H27.1464H27.2197H27.2932H27.3664H27.4402H27.5135H27.587H27.6603H27.734H27.8074H27.8808H27.9542H28.028H28.1013H28.1673H28.2406H28.3144H28.3878H28.4611H28.5345H28.6082H28.6816H28.7549V30.9719V31.0395V31.1142V31.1892V31.2568V31.3319V31.407V31.4746V31.5497V31.6248V31.6999V31.7674V31.8425V31.9176V31.9853V32.0603H28.6816H28.6082H28.5345H28.4611H28.3878H28.3144H28.2406H28.1673H28.1013H28.028H27.9542H27.8808H27.8074H27.734H27.6603H27.587H27.5135H27.4402H27.3664H27.2932H27.2197H27.1464H27.0725H26.9992H26.9259H26.8525H26.7861H26.7127H26.6394H26.5661H26.4923H26.4189H26.3456H26.2722H26.1984V32.1353V32.218V32.2931V32.3682V32.4508V32.5259V32.6009V32.6835V32.7586V32.8337V32.9163V32.9913H26.2722H26.3456H26.4189H26.4923H26.5661H26.6394H26.7127H26.7861H26.8599H26.9406H27.014H27.0873H27.1611H27.2345H27.3079H27.3812H27.4549H27.5283H27.6017H27.675H27.7483H27.8222H27.8955H27.969H28.0422H28.1161H28.1895H28.2628H28.3361H28.4172H28.4907H28.5639H28.6374H28.7112H28.7845H28.8578H28.9312H29.0049H29.0783V33.0665V33.134V33.2092V33.2842V33.3594V33.427V33.502V33.577V33.6447V33.7197V33.7948V33.8625V33.9371V34.0122V34.0872V34.1549V34.23H29.0049ZM23.6375 34.23H23.5641H23.4908H23.4097H23.3364H23.2629H23.1896H23.1158H23.0424H22.9617H22.8883H22.8149H22.7412H22.6679H22.5945H22.5138H22.4399H22.3666H22.2932V34.1549V34.0797V34.0047V33.9296V33.854V33.779V33.7039V33.6287V33.5537V33.4786V33.4035V33.328V33.2529V33.1778V33.1027V33.0276V32.9521V32.8769V32.8019V32.7268V32.6517V32.5767V32.5011V32.426V32.3509V32.2758V32.2008V32.1257V32.0501V31.975V31.8999V31.8249V31.7498V31.6747V31.5991V31.5241V31.449V31.3739V31.2988V31.2232V31.1482V31.0731V30.998L22.2564 31.058L22.2125 31.1261L22.1756 31.1862L22.1318 31.2463L22.0949 31.3138L22.0506 31.3739L22.0142 31.434L21.9772 31.502L21.9335 31.5621L21.8965 31.6221L21.8523 31.6822L21.8159 31.7503L21.7716 31.8103L21.7351 31.8704L21.6982 31.938L21.6539 31.9984L21.6174 32.0586L21.5732 32.126L21.5367 32.1862L21.4925 32.2463L21.456 32.3142L21.4191 32.3744L21.3749 32.4345L21.3384 32.502L21.2941 32.5625L21.2577 32.6225L21.2134 32.6827L21.1764 32.7502L21.1399 32.8107L21.0958 32.8708L21.0593 32.9384L21.015 32.9984L20.9782 33.0585L20.9343 33.1266L20.8974 33.1866H20.8683L20.8241 33.119L20.7871 33.0585L20.7433 32.9909L20.7064 32.9308L20.6625 32.8634L20.6256 32.8028L20.5819 32.7352L20.5449 32.675L20.5006 32.6076L20.4641 32.5475L20.4199 32.4794L20.3835 32.4194L20.3392 32.3518L20.3023 32.2917L20.2585 32.2237L20.2216 32.1637L20.1777 32.0961L20.1335 32.036L20.0966 31.968L20.0527 31.9079L20.0159 31.8403L19.972 31.7803L19.9351 31.7122L19.8912 31.6521L19.8544 31.5845L19.8101 31.5245L19.7737 31.4569L19.7293 31.3964L19.6929 31.3289L19.6486 31.2687L19.6117 31.2011L19.568 31.1412L19.5309 31.0731L19.4871 31.013V31.088V31.1632V31.2383V31.3138V31.3889V31.4639V31.5391V31.6142V31.6897V31.7648V31.8324V31.9074V31.9826V32.0576V32.1332V32.2083V32.2833V32.3584V32.4335V32.5086V32.5841V32.6592V32.7343V32.8094V32.8845V32.9596V33.0351V33.1102V33.1853V33.2604V33.3355V33.4109V33.4786V33.5537V33.6287V33.7039V33.779V33.854V33.9296V34.0047V34.0797V34.1549V34.23H19.4138H19.3401H19.2666H19.1933H19.1199H19.0462H18.9728H18.8995H18.8261H18.7523H18.679H18.6056H18.5322H18.4585H18.3851H18.3117H18.2383H18.1646H18.0912V34.1549V34.0797V34.0047V33.93V33.8549V33.7798V33.7047V33.6297V33.5546V33.4795V33.4044V33.3293V33.2542V33.1791V33.104V33.029V32.9539V32.8788V32.8112V32.736V32.661V32.586V32.5108V32.4357V32.3606V32.2855V32.2104V32.1353V32.0603V31.9853V31.9101V31.835V31.7599V31.6848V31.6097V31.5347V31.4595V31.3845V31.3094V31.2343V31.1593V31.0845V31.0095V30.9344V30.8593V30.7842V30.7091V30.634V30.559V30.4839V30.4087V30.3337V30.2586V30.1835V30.1159V30.0409V29.9658V29.8906V29.8156V29.7404V29.6654V29.5902V29.5152V29.4401V29.365V29.2899V29.2148V29.1397V29.0647V28.9896V28.9145V28.8394V28.7643H18.1646H18.2383H18.3044H18.3777H18.4511H18.5248H18.5908H18.6641H18.738H18.8113H18.8774H18.9507H19.0245H19.0978H19.1638H19.2371H19.3109H19.3843H19.4503H19.5236H19.5974L19.6339 28.8244L19.6708 28.8919L19.7145 28.9515L19.7515 29.0191L19.7883 29.0792L19.8248 29.1469L19.8617 29.2064L19.9056 29.2741L19.9424 29.3341L19.9794 29.3942L20.0159 29.4613L20.0527 29.5214L20.0966 29.5889L20.1335 29.649L20.1703 29.7161L20.2068 29.7762L20.2511 29.8362L20.288 29.9035L20.3244 29.9635L20.3613 30.0311L20.3978 30.0912L20.4421 30.1583L20.479 30.2184L20.5154 30.2859L20.5523 30.3456L20.5888 30.4056L20.633 30.4732L20.6699 30.5334L20.7064 30.601L20.7433 30.6606L20.7797 30.7282L20.8241 30.7882L20.8609 30.8553L20.8974 30.9154L20.9343 30.8553L20.9712 30.7882L21.015 30.7282L21.0518 30.6606L21.0883 30.601L21.1253 30.5334L21.1691 30.4732L21.206 30.4056L21.2429 30.3456L21.2793 30.2859L21.3236 30.2184L21.3601 30.1583L21.397 30.0912L21.4338 30.0311L21.4777 29.9635L21.5145 29.9035L21.5515 29.8362L21.5879 29.7762L21.6249 29.7161L21.6687 29.649L21.7056 29.5889L21.7424 29.5214L21.779 29.4613L21.8232 29.3942L21.8597 29.3341L21.8965 29.2741L21.9335 29.2064L21.9772 29.1469L22.0142 29.0792L22.0506 29.0191L22.0875 28.9515L22.1318 28.8919L22.1683 28.8244L22.2051 28.7643H22.2785H22.3519H22.4182H22.4917H22.565H22.6383H22.7048H22.7782H22.8514H22.9248H22.9912H23.0646H23.1379H23.2113H23.2777H23.3511H23.4244H23.4977H23.5641H23.6375H23.7108V28.8394V28.9145V28.9896V29.0647V29.1397V29.2148V29.2899V29.365V29.4401V29.5152V29.5902V29.6654V29.7404V29.8156V29.8906V29.9658V30.0409V30.1159V30.1835V30.2586V30.3337V30.4087V30.4839V30.559V30.634V30.7091V30.7842V30.8593V30.9344V31.0095V31.0845V31.1593V31.2343V31.3094V31.3845V31.4595V31.5347V31.6097V31.6848V31.7599V31.835V31.9101V31.9853V32.0603V32.1353V32.2104V32.2855V32.3606V32.4357V32.5108V32.586V32.661V32.736V32.8112V32.8788V32.9539V33.029V33.104V33.1791V33.2542V33.3293V33.4044V33.4795V33.5546V33.6297V33.7047V33.7798V33.8549V33.93V34.0047V34.0797V34.1549V34.23H23.6375ZM15.1141 31.9777L15.092 31.9097L15.0629 31.8346L15.0334 31.767L15.0112 31.699L14.9822 31.6314L14.9527 31.5563L14.9305 31.4882L14.9009 31.4207L14.872 31.3531L14.8498 31.2852L14.8202 31.21L14.7986 31.1424L14.769 31.0744L14.7395 31.0068L14.7174 30.9392L14.6883 30.8638L14.6588 30.7961L14.6367 30.7286L14.6071 30.6606L14.5781 30.5854L14.5559 30.5174L14.5264 30.4498L14.4974 30.5174L14.4753 30.5854L14.4458 30.6606L14.4162 30.7286L14.3945 30.7961L14.365 30.8638L14.3354 30.9392L14.3064 31.0068L14.2841 31.0744L14.2547 31.1424L14.2251 31.21L14.2034 31.2852L14.174 31.3531L14.1444 31.4207L14.1224 31.4882L14.0932 31.5563L14.0637 31.6314L14.0342 31.699L14.0125 31.767L13.983 31.8346L13.9535 31.9097L13.9313 31.9777L13.9023 32.0453H13.9756H14.049H14.1224H14.1961H14.2695H14.3428H14.4162H14.49H14.5559H14.6293H14.7031H14.7764H14.8498H14.9232H14.9965H15.0703H15.1436L15.1141 31.9777ZM17.4211 34.23H17.3474H17.2813H17.208H17.1342H17.0609H16.9875H16.9216H16.8477H16.7744H16.7011H16.6276H16.5539H16.4879H16.4145H16.3411H16.2674H16.194H16.128H16.0547H15.9809L15.9518 34.1623L15.9297 34.0947L15.9002 34.0271L15.8707 33.9521L15.849 33.8849L15.8195 33.8174L15.7899 33.7498L15.7682 33.6822L15.7387 33.6147L15.7092 33.5471L15.6871 33.4795L15.658 33.4044L15.6285 33.3368L15.6063 33.2692L15.5767 33.2016H15.5034H15.4301H15.3567H15.2834H15.217H15.1436H15.0703H14.9965H14.9232H14.8498H14.7764H14.7031H14.6293H14.5559H14.49H14.4162H14.3428H14.2695H14.1961H14.1224H14.049H13.9756H13.9023H13.829H13.7624H13.6892H13.6158H13.5419H13.4686L13.4396 33.2692L13.4174 33.3368L13.3879 33.4044L13.3584 33.4795L13.3367 33.5471L13.3072 33.6147L13.2777 33.6822L13.2555 33.7498L13.2265 33.8174L13.1969 33.8849L13.1748 33.9521L13.1456 34.0271L13.1162 34.0947L13.094 34.1623L13.0645 34.23H12.9912H12.9179H12.8445H12.7707H12.6974H12.6166H12.5433H12.4698H12.3961H12.3228H12.2495H12.176H12.1022H12.029H11.9556H11.8749H11.8011H11.7277H11.6543H11.5809L11.61 34.1623L11.6396 34.0947L11.669 34.0271L11.6982 33.9521L11.7203 33.8849L11.7498 33.8174L11.7793 33.7498L11.8083 33.6822L11.8379 33.6147L11.8675 33.5395L11.8965 33.4719L11.9261 33.4044L11.9481 33.3368L11.9777 33.2692L12.0067 33.2016L12.0362 33.1266L12.0658 33.059L12.0949 32.9913L12.1244 32.9238L12.1539 32.8562L12.176 32.7886L12.2051 32.7135L12.2346 32.646L12.2641 32.5784L12.2932 32.5108L12.3228 32.4433L12.3523 32.3757L12.3814 32.3005L12.4035 32.233L12.433 32.1654L12.4625 32.0978L12.4917 32.0302L12.5211 31.9626L12.5506 31.8876L12.5797 31.82L12.6092 31.7524L12.6313 31.6848L12.6609 31.6173L12.6899 31.5497L12.7195 31.4746L12.749 31.407L12.7781 31.3394L12.8075 31.2718L12.8371 31.2043L12.8592 31.1367L12.8883 31.0696L12.9179 30.9944L12.9473 30.9269L12.9764 30.8593L13.0059 30.7917L13.0354 30.7241L13.0645 30.6566L13.0866 30.5814L13.1162 30.5139L13.1456 30.4463L13.1748 30.3787L13.2043 30.3111L13.2338 30.2435L13.2629 30.1684L13.2924 30.1009L13.3145 30.0334L13.344 29.9658L13.3732 29.8982L13.4026 29.8306L13.4322 29.7555L13.4612 29.6879L13.4908 29.6203L13.5203 29.5527L13.5419 29.4852L13.5715 29.4176L13.6011 29.3425L13.6306 29.2749L13.6596 29.2073L13.6892 29.1397L13.7187 29.0721L13.7477 29.0047L13.7699 28.9295L13.7994 28.862L13.829 28.7944L13.858 28.7268H13.9313H13.9977H14.0711H14.1444H14.2182H14.2841H14.3575H14.4309H14.5048H14.5708H14.644H14.7174H14.7912H14.8572H14.9305H15.0038H15.0777H15.1436H15.217L15.2465 28.7944L15.276 28.862L15.3051 28.9295L15.3346 29.0047L15.3567 29.0721L15.3858 29.1397L15.4154 29.2073L15.4448 29.2749L15.4744 29.3425L15.5034 29.4176L15.533 29.4852L15.5625 29.5527L15.5841 29.6203L15.6137 29.6879L15.6433 29.7555L15.6728 29.8306L15.7019 29.8982L15.7313 29.9658L15.7609 30.0334L15.7899 30.1009L15.812 30.1684L15.8416 30.2435L15.8707 30.3111L15.9002 30.3787L15.9297 30.4463L15.9592 30.5139L15.9883 30.5814L16.0177 30.6566L16.0399 30.7241L16.069 30.7917L16.0985 30.8593L16.128 30.9269L16.1576 30.9944L16.1866 31.0696L16.2162 31.1367L16.2456 31.2043L16.2674 31.2718L16.2969 31.3394L16.3264 31.407L16.3555 31.4746L16.385 31.5497L16.4145 31.6173L16.4441 31.6848L16.4732 31.7524L16.4953 31.82L16.5248 31.8876L16.5539 31.9626L16.5833 32.0302L16.6129 32.0978L16.6424 32.1654L16.6715 32.233L16.7011 32.3005L16.7231 32.3757L16.7522 32.4433L16.7817 32.5108L16.8112 32.5784L16.8403 32.646L16.8698 32.7135L16.8994 32.7886L16.929 32.8562L16.9506 32.9238L16.9801 32.9913L17.0097 33.059L17.0387 33.1266L17.0682 33.2016L17.0977 33.2692L17.1272 33.3368L17.1562 33.4044L17.1785 33.4719L17.208 33.5395L17.2371 33.6147L17.2666 33.6822L17.296 33.7498L17.3251 33.8174L17.3546 33.8849L17.3841 33.9521L17.4064 34.0271L17.4354 34.0947L17.4649 34.1623L17.4944 34.23H17.4211ZM10.9855 33.532L10.9265 33.577L10.8752 33.6147L10.8162 33.6597L10.7576 33.6972L10.699 33.7423L10.6399 33.7798L10.5814 33.8174L10.5149 33.8549L10.449 33.8924L10.3829 33.93L10.3166 33.9595L10.2506 33.9971L10.1772 34.0271L10.1113 34.0572L10.0375 34.0872L9.97155 34.1172L9.9055 34.1398L9.83915 34.1623L9.77316 34.1849L9.69983 34.2074L9.6339 34.23L9.56007 34.245L9.49402 34.26L9.42069 34.275L9.34699 34.2899L9.27353 34.2975L9.19279 34.305L9.11946 34.3125L9.03872 34.32L8.96489 34.3276L8.88427 34.335H8.80353H8.72267H8.64205H8.56822L8.49489 34.3276L8.41415 34.32L8.34081 34.3125L8.26748 34.305L8.19365 34.2975L8.12032 34.2825L8.04686 34.2674L7.98094 34.2524L7.90723 34.2374L7.84118 34.2149L7.76785 34.1999L7.70143 34.1773L7.63544 34.1473L7.56946 34.1248L7.49618 34.0947L7.42976 34.0647L7.36378 34.0348L7.29785 34.0047L7.23131 33.9672L7.17279 33.93L7.1068 33.8924L7.04779 33.8549L6.98921 33.8174L6.9302 33.7723L6.87155 33.7273L6.81291 33.6822L6.76131 33.6371L6.71007 33.5921L6.65841 33.5395L6.60723 33.4946L6.55551 33.4419L6.50433 33.3893L6.46007 33.3368L6.41618 33.2768L6.37193 33.2242L6.33501 33.1641L6.29118 33.104L6.25439 33.044L6.21785 32.9839L6.18096 32.9163L6.14409 32.8562L6.11503 32.7886L6.08548 32.721L6.05602 32.6534L6.02688 32.586L6.00474 32.5259L5.9752 32.4582L5.96046 32.3906L5.93873 32.3231L5.924 32.2481L5.90186 32.1804L5.88713 32.1054L5.87972 32.0378L5.86491 31.9626L5.85766 31.8951L5.85017 31.82L5.84326 31.7449L5.83594 31.6699V31.5872V31.5121V31.4971V31.422L5.84326 31.3394V31.2644L5.85017 31.1892L5.85766 31.1066L5.87239 31.032L5.87972 30.9569L5.89446 30.8893L5.91659 30.8143L5.93141 30.7392L5.95305 30.6716L5.9752 30.5965L5.99733 30.5289L6.02688 30.4538L6.05602 30.3863L6.08548 30.3187L6.11503 30.2511L6.14409 30.1835L6.18096 30.1159L6.21785 30.0558L6.25439 29.9957L6.29118 29.9357L6.3281 29.8756L6.37193 29.8156L6.41618 29.7555L6.46007 29.6955L6.50433 29.6428L6.55551 29.5902L6.59983 29.5377L6.65106 29.4852L6.70267 29.4326L6.7539 29.3876L6.81291 29.335L6.86415 29.2899L6.92279 29.2449L6.9818 29.2073L7.04038 29.1623L7.09946 29.1248L7.15797 29.0872L7.22402 29.0496L7.29044 29.0121L7.35637 28.9746L7.42236 28.9445L7.48872 28.9145L7.56211 28.8769L7.62069 28.8545L7.69402 28.8319L7.76057 28.8019L7.82649 28.7868L7.89242 28.7643L7.96612 28.7493L8.03217 28.7268L8.10551 28.7118L8.1789 28.7042L8.25267 28.6892L8.32606 28.6817L8.39933 28.6743L8.47273 28.6667L8.54655 28.6592H8.62729H8.70063H8.78131H8.86205L8.94328 28.6667L9.02402 28.6743H9.09736L9.17069 28.6817L9.25143 28.6967L9.31785 28.7042L9.39118 28.7193L9.46458 28.7343L9.53094 28.7493L9.59686 28.7643L9.66291 28.7793L9.72933 28.8019L9.79526 28.8168L9.8539 28.8394L9.92032 28.862L9.98631 28.8919L10.0522 28.922L10.1187 28.952L10.1846 28.9896L10.2506 29.0196L10.3097 29.0572L10.3756 29.0947L10.4342 29.1322L10.5006 29.1698L10.5592 29.2148L10.6179 29.2524L10.6769 29.2975L10.7354 29.3425L10.7945 29.395L10.853 29.4401L10.8088 29.5002L10.7576 29.5527L10.7133 29.6128L10.6621 29.6729L10.6179 29.733L10.574 29.7855L10.5223 29.8455L10.4785 29.9056L10.4342 29.9583L10.3829 30.0183L10.3387 30.0784L10.2875 30.1384L10.2432 30.191L10.1994 30.2511L10.1478 30.3111L10.1038 30.3712L10.0522 30.4238L10.0083 30.4839L9.94933 30.4388L9.89075 30.3863L9.83174 30.3487L9.77316 30.3036L9.71452 30.2661L9.65551 30.2285L9.59686 30.191L9.53094 30.1535L9.47193 30.1234L9.41328 30.0934L9.35427 30.0709L9.28828 30.0483L9.22236 30.0258L9.15594 30.0108L9.0826 29.9957L9.00927 29.9807L8.93588 29.9733L8.85514 29.9658L8.77396 29.9583H8.69322H8.61989L8.54655 29.9658L8.48014 29.9733L8.4068 29.9883L8.34081 30.0033L8.27439 30.0258L8.20847 30.0483L8.14242 30.0784L8.07643 30.1084L8.01742 30.1459L7.9589 30.1835L7.89983 30.2211L7.84859 30.2661L7.79692 30.3111L7.74575 30.3562L7.70143 30.4087L7.65026 30.4613L7.606 30.5214L7.56946 30.574L7.53254 30.634L7.49618 30.7016L7.45921 30.7617L7.42976 30.8292L7.4076 30.8968L7.37847 30.9644L7.35637 31.0395L7.34162 31.1142L7.32686 31.1817L7.31205 31.2644L7.30476 31.3394L7.29785 31.4144V31.4971V31.5121V31.5872L7.30476 31.6623L7.31205 31.7299L7.31946 31.805L7.33421 31.8725L7.34902 31.9402L7.36378 32.0077L7.38588 32.0753L7.4076 32.1353L7.43717 32.2104L7.46662 32.278L7.5031 32.3456L7.53995 32.4057L7.57686 32.4657L7.62069 32.5259L7.66501 32.5784L7.71618 32.631L7.76057 32.6835L7.81168 32.7286L7.87075 32.7737L7.92933 32.8187L7.98785 32.8562L8.04686 32.8938L8.11297 32.9238L8.1789 32.9539L8.24526 32.9839L8.31865 33.0064L8.39199 33.029L8.46581 33.044L8.53915 33.059L8.61248 33.0665L8.69322 33.074H8.77396H8.86205L8.94328 33.0665L9.02402 33.059L9.09736 33.0514L9.17069 33.0364L9.24452 33.0214L9.31785 32.9989L9.38378 32.9839L9.44983 32.9539L9.50884 32.9238L9.57476 32.8938L9.62637 32.8637L9.68507 32.8262V32.7511V32.676V32.6009V32.5259V32.4433V32.3682V32.2931V32.218V32.1429H9.61168H9.54532H9.47193H9.39859H9.32526H9.25884H9.18538H9.11205H9.03872H8.97242H8.89896H8.82563H8.75223H8.68588H8.61248V32.0679V32.0003V31.9251V31.8501V31.7749V31.7074V31.6323V31.5572V31.4822V31.4144V31.3394V31.2644V31.1892V31.1217V31.047H8.68588H8.75964H8.83304H8.90631H8.9797H9.05304H9.12686H9.2002H9.27353H9.34699H9.42069H9.49402H9.56736H9.64069H9.71452H9.78797H9.86131H9.93464H10.0083H10.0818H10.1551H10.2285H10.3022H10.3756H10.449H10.5223H10.5961H10.6695H10.7429H10.8162H10.89H10.9633H11.0367V31.1217V31.1967V31.2718V31.3394V31.4144V31.4896V31.5646V31.6398V31.7149V31.7824V31.8575V31.9327V32.0077V32.0828V32.1579V32.233V32.3005V32.3757V32.4508V32.5259V32.6009V32.676V32.7511V32.8187V32.8938V32.9689V33.044V33.119V33.1941V33.2618V33.3368V33.4119V33.487L10.9855 33.532Z" fill="#343434"/>
<path d="M8.62254 16.3975H11.8064V13.8913H8.62254V8.77503H11.9331V6.26892H5.91895V24.356H11.9835V21.8498H8.62254V16.3975Z" fill="#343434"/>
<path d="M31.4269 16.9405V21.023C31.4269 21.7466 31.0982 22.0823 30.4163 22.0823H29.9107C29.2032 22.0823 28.8746 21.7466 28.8746 21.023V9.60197C28.8746 8.87851 29.2032 8.54282 29.9107 8.54282H30.3656C31.0479 8.54282 31.3765 8.87851 31.3765 9.60197V13.1422H34.0294V9.44694C34.0294 7.19917 32.9681 6.11389 30.7702 6.11389H29.4558C27.2578 6.11389 26.1709 7.2248 26.1709 9.473V21.152C26.1709 23.4003 27.2578 24.5111 29.4558 24.5111H30.7953C32.9938 24.5111 34.0802 23.4003 34.0802 21.152V16.9405H31.4269Z" fill="#343434"/>
<path d="M22.0381 24.3561H24.7421V6.26892H22.0381V24.3561Z" fill="#343434"/>
<path d="M18.1152 14.3048C18.1152 15.0283 17.7871 15.3644 17.1048 15.3644H15.9928V8.69783H17.1048C17.7871 8.69783 18.1152 9.03358 18.1152 9.75698V14.3048ZM17.5341 6.26892H13.2891V24.3561H15.9928V17.7929H17.5341C19.7325 17.7929 20.8189 16.682 20.8189 14.4342V9.62801C20.8189 7.37987 19.7325 6.26892 17.5341 6.26892Z" fill="#343434"/>
<path fill-rule="evenodd" clip-rule="evenodd" d="M12.2969 40.7104H27.7746L19.8745 43.3617L12.2969 40.7104Z" fill="#343434"/>
</g>
</svg>
